<mxfile host="app.diagrams.net" modified="2023-11-02T18:40:49.984Z" agent="Mozilla/5.0 (Windows NT 10.0; Win64; x64) AppleWebKit/537.36 (KHTML, like Gecko) Chrome/118.0.0.0 Safari/537.36" etag="q4lkeZbtg9zphwEobMcN" version="22.0.8" type="github">
  <diagram name="Pagina-1" id="s7u_jXoOyTNwt44IqN7l">
    <mxGraphModel dx="1434" dy="788" grid="1" gridSize="10" guides="1" tooltips="1" connect="1" arrows="1" fold="1" page="1" pageScale="1" pageWidth="827" pageHeight="1169" math="0" shadow="0">
      <root>
        <mxCell id="0" />
        <mxCell id="1" parent="0" />
        <mxCell id="zC79mrKcqQ9EmenrV000-1" value="MAIN" style="swimlane;fontStyle=0;childLayout=stackLayout;horizontal=1;startSize=26;fillColor=none;horizontalStack=0;resizeParent=1;resizeParentMax=0;resizeLast=0;collapsible=1;marginBottom=0;whiteSpace=wrap;html=1;" parent="1" vertex="1">
          <mxGeometry x="400" y="40" width="310" height="52" as="geometry" />
        </mxCell>
        <mxCell id="zC79mrKcqQ9EmenrV000-2" value="+main(args: String[]): void" style="text;strokeColor=none;fillColor=none;align=left;verticalAlign=top;spacingLeft=4;spacingRight=4;overflow=hidden;rotatable=0;points=[[0,0.5],[1,0.5]];portConstraint=eastwest;whiteSpace=wrap;html=1;" parent="zC79mrKcqQ9EmenrV000-1" vertex="1">
          <mxGeometry y="26" width="310" height="26" as="geometry" />
        </mxCell>
        <mxCell id="zC79mrKcqQ9EmenrV000-16" value="MASINAAPPLICATION" style="swimlane;fontStyle=1;align=center;verticalAlign=top;childLayout=stackLayout;horizontal=1;startSize=26;horizontalStack=0;resizeParent=1;resizeParentMax=0;resizeLast=0;collapsible=1;marginBottom=0;whiteSpace=wrap;html=1;" parent="1" vertex="1">
          <mxGeometry x="40" y="40" width="320" height="286" as="geometry" />
        </mxCell>
        <mxCell id="zC79mrKcqQ9EmenrV000-17" value="- frame: JFrame&lt;br&gt;- outputArea: JTextArea&lt;br&gt;- reprezentanta: Reprezentanta" style="text;strokeColor=none;fillColor=none;align=left;verticalAlign=top;spacingLeft=4;spacingRight=4;overflow=hidden;rotatable=0;points=[[0,0.5],[1,0.5]];portConstraint=eastwest;whiteSpace=wrap;html=1;" parent="zC79mrKcqQ9EmenrV000-16" vertex="1">
          <mxGeometry y="26" width="320" height="54" as="geometry" />
        </mxCell>
        <mxCell id="zC79mrKcqQ9EmenrV000-18" value="" style="line;strokeWidth=1;fillColor=none;align=left;verticalAlign=middle;spacingTop=-1;spacingLeft=3;spacingRight=3;rotatable=0;labelPosition=right;points=[];portConstraint=eastwest;strokeColor=inherit;" parent="zC79mrKcqQ9EmenrV000-16" vertex="1">
          <mxGeometry y="80" width="320" height="8" as="geometry" />
        </mxCell>
        <mxCell id="zC79mrKcqQ9EmenrV000-19" value="+ MasinaApplication()" style="text;strokeColor=none;fillColor=none;align=left;verticalAlign=top;spacingLeft=4;spacingRight=4;overflow=hidden;rotatable=0;points=[[0,0.5],[1,0.5]];portConstraint=eastwest;whiteSpace=wrap;html=1;" parent="zC79mrKcqQ9EmenrV000-16" vertex="1">
          <mxGeometry y="88" width="320" height="24" as="geometry" />
        </mxCell>
        <mxCell id="zC79mrKcqQ9EmenrV000-24" value="+ main(args: String[]): void" style="text;strokeColor=none;fillColor=none;align=left;verticalAlign=top;spacingLeft=4;spacingRight=4;overflow=hidden;rotatable=0;points=[[0,0.5],[1,0.5]];portConstraint=eastwest;whiteSpace=wrap;html=1;" parent="zC79mrKcqQ9EmenrV000-16" vertex="1">
          <mxGeometry y="112" width="320" height="20" as="geometry" />
        </mxCell>
        <mxCell id="zC79mrKcqQ9EmenrV000-30" value="- createStyledButton(text: String, color:color): JButton" style="text;strokeColor=none;fillColor=none;align=left;verticalAlign=top;spacingLeft=4;spacingRight=4;overflow=hidden;rotatable=0;points=[[0,0.5],[1,0.5]];portConstraint=eastwest;whiteSpace=wrap;html=1;" parent="zC79mrKcqQ9EmenrV000-16" vertex="1">
          <mxGeometry y="132" width="320" height="16" as="geometry" />
        </mxCell>
        <mxCell id="zC79mrKcqQ9EmenrV000-31" value="- adaugaMasina(): void&lt;br&gt;" style="text;strokeColor=none;fillColor=none;align=left;verticalAlign=top;spacingLeft=4;spacingRight=4;overflow=hidden;rotatable=0;points=[[0,0.5],[1,0.5]];portConstraint=eastwest;whiteSpace=wrap;html=1;" parent="zC79mrKcqQ9EmenrV000-16" vertex="1">
          <mxGeometry y="148" width="320" height="20" as="geometry" />
        </mxCell>
        <mxCell id="zC79mrKcqQ9EmenrV000-32" value="- numarMasiniCuCuloare(): void&lt;br&gt;- gasesteMasinaCuPretulMaxim(): void&lt;br&gt;- gasesteMasinaCuPretulMinim(): void&lt;br&gt;- gasesteMasinaCuPutereMaxima(): void&lt;br&gt;- calculPretTotalMasiniVandute(): void&lt;br&gt;- calculNumarMasiniNevandute():void&lt;br&gt;- iesire(): void" style="text;strokeColor=none;fillColor=none;align=left;verticalAlign=top;spacingLeft=4;spacingRight=4;overflow=hidden;rotatable=0;points=[[0,0.5],[1,0.5]];portConstraint=eastwest;whiteSpace=wrap;html=1;" parent="zC79mrKcqQ9EmenrV000-16" vertex="1">
          <mxGeometry y="168" width="320" height="118" as="geometry" />
        </mxCell>
        <mxCell id="zC79mrKcqQ9EmenrV000-33" value="MASINA" style="swimlane;fontStyle=1;align=center;verticalAlign=top;childLayout=stackLayout;horizontal=1;startSize=26;horizontalStack=0;resizeParent=1;resizeParentMax=0;resizeLast=0;collapsible=1;marginBottom=0;whiteSpace=wrap;html=1;" parent="1" vertex="1">
          <mxGeometry x="40" y="365" width="320" height="440" as="geometry" />
        </mxCell>
        <mxCell id="zC79mrKcqQ9EmenrV000-34" value="- marca: String&lt;br&gt;- model: String&lt;br&gt;- an: int&lt;br&gt;- putere: int&lt;br&gt;- pret: double&lt;br&gt;- culoare: String&lt;br&gt;- stareVanzare: boolean&lt;br&gt;- tipCarburant: String" style="text;strokeColor=none;fillColor=none;align=left;verticalAlign=top;spacingLeft=4;spacingRight=4;overflow=hidden;rotatable=0;points=[[0,0.5],[1,0.5]];portConstraint=eastwest;whiteSpace=wrap;html=1;" parent="zC79mrKcqQ9EmenrV000-33" vertex="1">
          <mxGeometry y="26" width="320" height="124" as="geometry" />
        </mxCell>
        <mxCell id="zC79mrKcqQ9EmenrV000-35" value="" style="line;strokeWidth=1;fillColor=none;align=left;verticalAlign=middle;spacingTop=-1;spacingLeft=3;spacingRight=3;rotatable=0;labelPosition=right;points=[];portConstraint=eastwest;strokeColor=inherit;" parent="zC79mrKcqQ9EmenrV000-33" vertex="1">
          <mxGeometry y="150" width="320" height="8" as="geometry" />
        </mxCell>
        <mxCell id="zC79mrKcqQ9EmenrV000-36" value="&lt;div&gt;+ Masina(marca: String, model: String, an: int, putere: int, pret: double, culoare: String, stareVanzare: boolean, tipCarburant: String)&lt;/div&gt;&lt;div&gt;&lt;div&gt;+ Masina(marca: String, model: String, an: int, putere: int, pret: double, tipCarburant: String)&lt;/div&gt;&lt;/div&gt;&lt;div&gt;+ toString(): String&lt;/div&gt;&lt;div&gt;+ getCuloare(): String&lt;/div&gt;&lt;div&gt;+ getPret(): double&lt;/div&gt;&lt;div&gt;+ getPutere(): int&lt;/div&gt;&lt;div&gt;+ isVanduta(): boolean&lt;/div&gt;&lt;div&gt;+ getTipCarburant(): String&lt;/div&gt;&lt;div&gt;&lt;div&gt;+ setMarca(marca: String): void&lt;/div&gt;&lt;div&gt;+ setModel(model: String): void&lt;/div&gt;&lt;div&gt;+ setAn(an: int): void&lt;/div&gt;&lt;div&gt;+ setPutere(putere: int): void&lt;/div&gt;&lt;div&gt;+ setPret(pret: double): void&lt;/div&gt;&lt;div&gt;+ setCuloare(culoare: String): void&lt;/div&gt;&lt;div&gt;+ setStareVanzare(stareVanzare: boolean): void&lt;/div&gt;&lt;div&gt;+ setTipCarburant(tipCarburant: String): void&lt;/div&gt;&lt;/div&gt;&lt;div&gt;&lt;br&gt;&lt;/div&gt;&lt;div&gt;&lt;br&gt;&lt;/div&gt;&lt;div&gt;&lt;br&gt;&lt;/div&gt;&lt;div&gt;&lt;br&gt;&lt;/div&gt;" style="text;strokeColor=none;fillColor=none;align=left;verticalAlign=top;spacingLeft=4;spacingRight=4;overflow=hidden;rotatable=0;points=[[0,0.5],[1,0.5]];portConstraint=eastwest;whiteSpace=wrap;html=1;" parent="zC79mrKcqQ9EmenrV000-33" vertex="1">
          <mxGeometry y="158" width="320" height="282" as="geometry" />
        </mxCell>
        <mxCell id="zC79mrKcqQ9EmenrV000-37" value="REPREZENTANTA" style="swimlane;fontStyle=1;align=center;verticalAlign=top;childLayout=stackLayout;horizontal=1;startSize=26;horizontalStack=0;resizeParent=1;resizeParentMax=0;resizeLast=0;collapsible=1;marginBottom=0;whiteSpace=wrap;html=1;" parent="1" vertex="1">
          <mxGeometry x="400" y="136" width="310" height="190" as="geometry" />
        </mxCell>
        <mxCell id="zC79mrKcqQ9EmenrV000-38" value="- masini: List&amp;lt;Masina&amp;gt;" style="text;strokeColor=none;fillColor=none;align=left;verticalAlign=top;spacingLeft=4;spacingRight=4;overflow=hidden;rotatable=0;points=[[0,0.5],[1,0.5]];portConstraint=eastwest;whiteSpace=wrap;html=1;" parent="zC79mrKcqQ9EmenrV000-37" vertex="1">
          <mxGeometry y="26" width="310" height="26" as="geometry" />
        </mxCell>
        <mxCell id="zC79mrKcqQ9EmenrV000-39" value="" style="line;strokeWidth=1;fillColor=none;align=left;verticalAlign=middle;spacingTop=-1;spacingLeft=3;spacingRight=3;rotatable=0;labelPosition=right;points=[];portConstraint=eastwest;strokeColor=inherit;" parent="zC79mrKcqQ9EmenrV000-37" vertex="1">
          <mxGeometry y="52" width="310" height="8" as="geometry" />
        </mxCell>
        <mxCell id="zC79mrKcqQ9EmenrV000-40" value="&lt;div&gt;&lt;span style=&quot;background-color: initial;&quot;&gt;+ adaugaMasina(masina: Masina): void&lt;/span&gt;&lt;br&gt;&lt;/div&gt;&lt;div&gt;+ getMasini(): List&amp;lt;Masina&amp;gt;&lt;/div&gt;&lt;div&gt;+ numarMasiniCuCuloarea(culoareCautata: String): int&lt;/div&gt;&lt;div&gt;+ masinaCuPretulCelMaiMare(): Masina&lt;/div&gt;&lt;div&gt;+ masinaCuPretulCelMaiMic(): Masina&lt;/div&gt;&lt;div&gt;+ masinaCuPutereaMaxima(): Masina&lt;/div&gt;&lt;div&gt;+ pretTotalMasiniVandute(): double&lt;/div&gt;&lt;div&gt;+ numarMasiniNevandute(): int&lt;/div&gt;&lt;div&gt;&lt;br&gt;&lt;/div&gt;" style="text;strokeColor=none;fillColor=none;align=left;verticalAlign=top;spacingLeft=4;spacingRight=4;overflow=hidden;rotatable=0;points=[[0,0.5],[1,0.5]];portConstraint=eastwest;whiteSpace=wrap;html=1;" parent="zC79mrKcqQ9EmenrV000-37" vertex="1">
          <mxGeometry y="60" width="310" height="130" as="geometry" />
        </mxCell>
      </root>
    </mxGraphModel>
  </diagram>
</mxfile>
